<?xml version="1.0" encoding="utf-8"?>
<svg fill="#f74d4d" version="1.1" xmlns="http://www.w3.org/2000/svg" xmlns:xlink="http://www.w3.org/1999/xlink" x="0px" y="0px" viewBox="0 0 1000 1000" enable-background="new 0 0 1000 1000" xml:space="preserve">
<g><path d="M978.1,924.9L819.8,766.5c69.4-80.7,111.6-185.4,111.6-300.1C931.4,212,725.1,5.8,470.7,5.8S10,212,10,466.5c0,254.4,206.3,460.7,460.7,460.7c110.4,0,211.7-38.9,291-103.7l158.9,158.9c15.9,15.9,41.6,15.9,57.5,0C994,966.5,994,940.7,978.1,924.9z M91.3,466.4c0-209.5,169.9-379.4,379.4-379.4c209.5,0,379.4,169.9,379.4,379.4c0,209.5-169.9,379.4-379.4,379.4C261.2,845.8,91.3,676,91.3,466.4z"/></g>
</svg>